<svg version="1.1" xmlns="http://www.w3.org/2000/svg" width="1333" height="582"><defs><clipPath id="JfALoTEJnssI"><path fill="none" stroke="none" d="M 33.5 10.5 L 1133.5 10.5 L 1133.5 560.5 L 33.5 560.5 L 33.5 10.5 Z"/></clipPath><clipPath id="AARSWLFshhnI"><path fill="none" stroke="none" d="M 33.5 10.5 L 1133.5 10.5 L 1133.5 560.5 L 33.5 560.5 L 33.5 10.5 Z"/></clipPath><clipPath id="sKoGOJwMzDif"/><clipPath id="BWptIBiLSnVD"/><clipPath id="HLcEgDvLTnKf"/><clipPath id="TBpKmSuOFyMy"><path fill="none" stroke="none" d="M 33.5 10.5 L 1133.5 10.5 L 1133.5 560.5 L 33.5 560.5 L 33.5 10.5 Z M 34 11 L 1133 11 L 1133 560 L 34 560 L 34 11 Z M 34 11 L 1133 11 L 1133 560 L 34 560 L 34 11 Z M 34 11 L 1133 11 L 1133 560 L 34 560 L 34 11 Z"/></clipPath><clipPath id="DuhwfxuGgIsO"><path fill="none" stroke="none" d="M 33.5 10.5 L 1133.5 10.5 L 1133.5 560.5 L 33.5 560.5 L 33.5 10.5 Z"/></clipPath><clipPath id="TEiDTWyQJpvx"><path fill="none" stroke="none" d="M 33.5 10.5 L 1133.5 10.5 L 1133.5 560.5 L 33.5 560.5 L 33.5 10.5 Z"/></clipPath></defs><path fill="rgb(255,255,255)" stroke="none" paint-order="stroke" d="M 0.5 0.5 L 1100.5 0.5 L 1100.5 550.5 L 0.5 550.5 L 0.5 0.5 Z" fill-opacity="1"/><rect fill="#FFFFFF" stroke="none" x="33" y="10" width="1100" height="550" transform="matrix(1, 0, 0, 1, 0.5, 0.5)"/><path fill="rgb(255,255,255)" stroke="none" paint-order="stroke" d="M 33.5 10.5 L 1133.5 10.5 L 1133.5 560.5 L 33.5 560.5 L 33.5 10.5 Z" fill-opacity="1"/><path fill="none" stroke="rgb(229,229,229)" paint-order="fill" d="M 33.5 10.5 L 1133.5 10.5 L 1133.5 560.5 L 33.5 560.5 L 33.5 10.5 Z" stroke-opacity="1" stroke-linejoin="bevel" stroke-miterlimit="10"/><g clip-path="url(#TBpKmSuOFyMy)"><image width="271.52288818359375" height="271.5228729248047" preserveAspectRatio="none" transform="matrix(1, 0, 0, 1, 583.5, 89.45979309082031)" href="https://c.tile.openstreetmap.org/2/2/1.png"/></g><g clip-path="url(#TBpKmSuOFyMy)"><image width="271.52288818359375" height="271.5228729248047" preserveAspectRatio="none" transform="matrix(1, 0, 0, 1, 583.5, -182.06307983398438)" href="https://c.tile.openstreetmap.org/2/2/0.png"/></g><g clip-path="url(#TBpKmSuOFyMy)"><image width="271.52288818359375" height="271.5228729248047" preserveAspectRatio="none" transform="matrix(1, 0, 0, 1, 311.97711181640625, 89.45979309082031)" href="https://c.tile.openstreetmap.org/2/1/1.png"/></g><g clip-path="url(#TBpKmSuOFyMy)"><image width="271.52288818359375" height="271.5228729248047" preserveAspectRatio="none" transform="matrix(1, 0, 0, 1, 855.0228881835938, 89.45979309082031)" href="https://c.tile.openstreetmap.org/2/3/1.png"/></g><g clip-path="url(#TBpKmSuOFyMy)"><image width="271.52288818359375" height="271.52288818359375" preserveAspectRatio="none" transform="matrix(1, 0, 0, 1, 583.5, 360.982666015625)" href="https://c.tile.openstreetmap.org/2/2/2.png"/></g><g clip-path="url(#TBpKmSuOFyMy)"><image width="271.52288818359375" height="271.5228729248047" preserveAspectRatio="none" transform="matrix(1, 0, 0, 1, 311.97711181640625, -182.06307983398438)" href="https://c.tile.openstreetmap.org/2/1/0.png"/></g><g clip-path="url(#TBpKmSuOFyMy)"><image width="271.52288818359375" height="271.5228729248047" preserveAspectRatio="none" transform="matrix(1, 0, 0, 1, 855.0228881835938, -182.06307983398438)" href="https://c.tile.openstreetmap.org/2/3/0.png"/></g><g clip-path="url(#TBpKmSuOFyMy)"><image width="271.52288818359375" height="271.52288818359375" preserveAspectRatio="none" transform="matrix(1, 0, 0, 1, 311.97711181640625, 360.982666015625)" href="https://c.tile.openstreetmap.org/2/1/2.png"/></g><g clip-path="url(#TBpKmSuOFyMy)"><image width="271.52288818359375" height="271.52288818359375" preserveAspectRatio="none" transform="matrix(1, 0, 0, 1, 855.0228881835938, 360.982666015625)" href="https://c.tile.openstreetmap.org/2/3/2.png"/></g><g clip-path="url(#TBpKmSuOFyMy)"><image width="271.5228691101074" height="271.5228729248047" preserveAspectRatio="none" transform="matrix(1, 0, 0, 1, 40.45424270629883, 89.45979309082031)" href="https://c.tile.openstreetmap.org/2/0/1.png"/></g><g clip-path="url(#TBpKmSuOFyMy)"><image width="271.5228271484375" height="271.5228729248047" preserveAspectRatio="none" transform="matrix(1, 0, 0, 1, 1126.5457763671875, 89.45979309082031)" href="https://c.tile.openstreetmap.org/2/0/1.png"/></g><g clip-path="url(#TBpKmSuOFyMy)"><image width="271.52288818359375" height="271.52288818359375" preserveAspectRatio="none" transform="matrix(1, 0, 0, 1, 583.5, 632.5055541992188)" href="https://c.tile.openstreetmap.org/2/2/3.png"/></g><g clip-path="url(#TBpKmSuOFyMy)"><image width="271.5228691101074" height="271.5228729248047" preserveAspectRatio="none" transform="matrix(1, 0, 0, 1, 40.45424270629883, -182.06307983398438)" href="https://c.tile.openstreetmap.org/2/0/0.png"/></g><g clip-path="url(#TBpKmSuOFyMy)"><image width="271.5228271484375" height="271.5228729248047" preserveAspectRatio="none" transform="matrix(1, 0, 0, 1, 1126.5457763671875, -182.06307983398438)" href="https://c.tile.openstreetmap.org/2/0/0.png"/></g><g clip-path="url(#TBpKmSuOFyMy)"><image width="271.5228691101074" height="271.52288818359375" preserveAspectRatio="none" transform="matrix(1, 0, 0, 1, 40.45424270629883, 360.982666015625)" href="https://c.tile.openstreetmap.org/2/0/2.png"/></g><g clip-path="url(#TBpKmSuOFyMy)"><image width="271.5228271484375" height="271.52288818359375" preserveAspectRatio="none" transform="matrix(1, 0, 0, 1, 1126.5457763671875, 360.982666015625)" href="https://c.tile.openstreetmap.org/2/0/2.png"/></g><g clip-path="url(#TBpKmSuOFyMy)"><image width="271.52288818359375" height="271.52288818359375" preserveAspectRatio="none" transform="matrix(1, 0, 0, 1, 311.97711181640625, 632.5055541992188)" href="https://c.tile.openstreetmap.org/2/1/3.png"/></g><g clip-path="url(#TBpKmSuOFyMy)"><image width="271.52288818359375" height="271.52288818359375" preserveAspectRatio="none" transform="matrix(1, 0, 0, 1, 855.0228881835938, 632.5055541992188)" href="https://c.tile.openstreetmap.org/2/3/3.png"/></g><g clip-path="url(#TBpKmSuOFyMy)"><image width="271.5228691101074" height="271.52288818359375" preserveAspectRatio="none" transform="matrix(1, 0, 0, 1, 40.45424270629883, 632.5055541992188)" href="https://c.tile.openstreetmap.org/2/0/3.png"/></g><g clip-path="url(#TBpKmSuOFyMy)"><image width="271.5228271484375" height="271.52288818359375" preserveAspectRatio="none" transform="matrix(1, 0, 0, 1, 1126.5457763671875, 632.5055541992188)" href="https://c.tile.openstreetmap.org/2/0/3.png"/></g><g clip-path="url(#TBpKmSuOFyMy)"><image width="271.52287673950195" height="271.5228729248047" preserveAspectRatio="none" transform="matrix(1, 0, 0, 1, -231.06863403320312, 89.45979309082031)" href="https://c.tile.openstreetmap.org/2/3/1.png"/></g><g clip-path="url(#TBpKmSuOFyMy)"><image width="271.52294921875" height="271.5228729248047" preserveAspectRatio="none" transform="matrix(1, 0, 0, 1, 1398.068603515625, 89.45979309082031)" href="https://c.tile.openstreetmap.org/2/1/1.png"/></g><g clip-path="url(#TBpKmSuOFyMy)"><image width="271.52287673950195" height="271.5228729248047" preserveAspectRatio="none" transform="matrix(1, 0, 0, 1, -231.06863403320312, -182.06307983398438)" href="https://c.tile.openstreetmap.org/2/3/0.png"/></g><g clip-path="url(#TBpKmSuOFyMy)"><image width="271.52294921875" height="271.5228729248047" preserveAspectRatio="none" transform="matrix(1, 0, 0, 1, 1398.068603515625, -182.06307983398438)" href="https://c.tile.openstreetmap.org/2/1/0.png"/></g><g clip-path="url(#TBpKmSuOFyMy)"><image width="271.52287673950195" height="271.52288818359375" preserveAspectRatio="none" transform="matrix(1, 0, 0, 1, -231.06863403320312, 360.982666015625)" href="https://c.tile.openstreetmap.org/2/3/2.png"/></g><g clip-path="url(#TBpKmSuOFyMy)"><image width="271.52294921875" height="271.52288818359375" preserveAspectRatio="none" transform="matrix(1, 0, 0, 1, 1398.068603515625, 360.982666015625)" href="https://c.tile.openstreetmap.org/2/1/2.png"/></g><g clip-path="url(#TBpKmSuOFyMy)"><image width="271.52287673950195" height="271.52288818359375" preserveAspectRatio="none" transform="matrix(1, 0, 0, 1, -231.06863403320312, 632.5055541992188)" href="https://c.tile.openstreetmap.org/2/3/3.png"/></g><g clip-path="url(#TBpKmSuOFyMy)"><image width="271.52294921875" height="271.52288818359375" preserveAspectRatio="none" transform="matrix(1, 0, 0, 1, 1398.068603515625, 632.5055541992188)" href="https://c.tile.openstreetmap.org/2/1/3.png"/></g><path fill="rgb(31,119,179)" stroke="rgb(31,119,179)" paint-order="fill" d="M 810.6237104799746 260.010498046875 A 3.9370039370059056 3.9370039370059056 0 0 1 802.7497026059629 260.010498046875 A 3.9370039370059056 3.9370039370059056 0 0 1 810.6237104799746 260.010498046875" fill-opacity="0.7019607843137254" clip-path="url(#DuhwfxuGgIsO)" stroke-opacity="0.7019607843137254" stroke-linejoin="bevel" stroke-miterlimit="10"/><path fill="rgb(255,126,14)" stroke="rgb(255,126,14)" paint-order="fill" d="M 481.56663824939096 388.2845764160156 A 4.330127018922194 4.330127018922194 0 0 1 472.90638421154654 388.2845764160156 A 4.330127018922194 4.330127018922194 0 0 1 481.56663824939096 388.2845764160156" fill-opacity="0.7019607843137254" clip-path="url(#DuhwfxuGgIsO)" stroke-opacity="0.7019607843137254" stroke-linejoin="bevel" stroke-miterlimit="10"/><path fill="rgb(43,160,43)" stroke="rgb(43,160,43)" paint-order="fill" d="M 284.426536407709 260.8934631347656 A 3.9370039370059056 3.9370039370059056 0 0 1 276.5525285336972 260.8934631347656 A 3.9370039370059056 3.9370039370059056 0 0 1 284.426536407709 260.8934631347656" fill-opacity="0.7019607843137254" clip-path="url(#DuhwfxuGgIsO)" stroke-opacity="0.7019607843137254" stroke-linejoin="bevel" stroke-miterlimit="10"/><path fill="rgb(214,38,40)" stroke="rgb(214,38,40)" paint-order="fill" d="M 117.24719543565445 300.58978271484375 A 4.242640687119285 4.242640687119285 0 0 1 108.76191406141587 300.58978271484375 A 4.242640687119285 4.242640687119285 0 0 1 117.24719543565445 300.58978271484375" fill-opacity="0.7019607843137254" clip-path="url(#DuhwfxuGgIsO)" stroke-opacity="0.7019607843137254" stroke-linejoin="bevel" stroke-miterlimit="10"/><path fill="rgb(147,103,188)" stroke="rgb(147,103,188)" paint-order="fill" d="M 378.096074253246 399.3060302734375 A 3.3166247903554 3.3166247903554 0 0 1 371.46282467253525 399.3060302734375 A 3.3166247903554 3.3166247903554 0 0 1 378.096074253246 399.3060302734375" fill-opacity="0.7019607843137254" clip-path="url(#DuhwfxuGgIsO)" stroke-opacity="0.7019607843137254" stroke-linejoin="bevel" stroke-miterlimit="10"/><path fill="rgb(140,86,75)" stroke="rgb(140,86,75)" paint-order="fill" d="M 583.9354784858594 222.5049591064453 A 3.082207001484488 3.082207001484488 0 0 1 577.7710644828906 222.5049591064453 A 3.082207001484488 3.082207001484488 0 0 1 583.9354784858594 222.5049591064453" fill-opacity="0.7019607843137254" clip-path="url(#DuhwfxuGgIsO)" stroke-opacity="0.7019607843137254" stroke-linejoin="bevel" stroke-miterlimit="10"/><path fill="rgb(226,119,193)" stroke="rgb(226,119,193)" paint-order="fill" d="M 117.11625976670913 300.53277587890625 A 4.242640687119285 4.242640687119285 0 0 1 108.63097839247055 300.53277587890625 A 4.242640687119285 4.242640687119285 0 0 1 117.11625976670913 300.53277587890625" fill-opacity="0.7019607843137254" clip-path="url(#DuhwfxuGgIsO)" stroke-opacity="0.7019607843137254" stroke-linejoin="bevel" stroke-miterlimit="10"/><path fill="none" stroke="rgb(0,0,0)" paint-order="fill" d="M 33.5 560.5 L 1133.5 560.5" stroke-opacity="1" stroke-linejoin="bevel" stroke-miterlimit="10"/><path fill="none" stroke="rgb(0,0,0)" paint-order="fill" d="M 130.5 566.5 L 130.5 558.5 M 281.5 566.5 L 281.5 558.5 M 432.5 566.5 L 432.5 558.5 M 583.5 566.5 L 583.5 558.5 M 734.5 566.5 L 734.5 558.5 M 885.5 566.5 L 885.5 558.5 M 1036.5 566.5 L 1036.5 558.5" stroke-opacity="1" stroke-linejoin="bevel" stroke-miterlimit="10"/><path fill="none" stroke="rgb(0,0,0)" paint-order="fill" d="M 100.5 564.5 L 100.5 560.5 M 70.5 564.5 L 70.5 560.5 M 130.5 564.5 L 130.5 560.5 M 161.5 564.5 L 161.5 560.5 M 191.5 564.5 L 191.5 560.5 M 221.5 564.5 L 221.5 560.5 M 251.5 564.5 L 251.5 560.5 M 281.5 564.5 L 281.5 560.5 M 311.5 564.5 L 311.5 560.5 M 342.5 564.5 L 342.5 560.5 M 372.5 564.5 L 372.5 560.5 M 402.5 564.5 L 402.5 560.5 M 432.5 564.5 L 432.5 560.5 M 462.5 564.5 L 462.5 560.5 M 492.5 564.5 L 492.5 560.5 M 523.5 564.5 L 523.5 560.5 M 553.5 564.5 L 553.5 560.5 M 583.5 564.5 L 583.5 560.5 M 613.5 564.5 L 613.5 560.5 M 643.5 564.5 L 643.5 560.5 M 674.5 564.5 L 674.5 560.5 M 704.5 564.5 L 704.5 560.5 M 734.5 564.5 L 734.5 560.5 M 764.5 564.5 L 764.5 560.5 M 794.5 564.5 L 794.5 560.5 M 824.5 564.5 L 824.5 560.5 M 855.5 564.5 L 855.5 560.5 M 885.5 564.5 L 885.5 560.5 M 915.5 564.5 L 915.5 560.5 M 945.5 564.5 L 945.5 560.5 M 975.5 564.5 L 975.5 560.5 M 1005.5 564.5 L 1005.5 560.5 M 1036.5 564.5 L 1036.5 560.5 M 1066.5 564.5 L 1066.5 560.5 M 1096.5 564.5 L 1096.5 560.5" stroke-opacity="1" stroke-linejoin="bevel" stroke-miterlimit="10"/><text fill="rgb(68,68,68)" stroke="none" font-family="helvetica" font-size="11px" font-style="normal" font-weight="normal" text-decoration="normal" x="118.07344055175781" y="578.89013671875" text-anchor="start" dominant-baseline="alphabetic" transform="matrix(1, 0, 0, 1, 0.5, 0.5)" fill-opacity="1">−150</text><text fill="none" stroke="rgb(0,0,0)" font-family="helvetica" font-size="11px" font-style="normal" font-weight="normal" text-decoration="normal" x="118.07344055175781" y="578.89013671875" text-anchor="start" dominant-baseline="alphabetic" transform="matrix(1, 0, 0, 1, 0.5, 0.5)" stroke-opacity="0" stroke-linejoin="bevel" stroke-miterlimit="10">−150</text><text fill="rgb(68,68,68)" stroke="none" font-family="helvetica" font-size="11px" font-style="normal" font-weight="normal" text-decoration="normal" x="268.91949462890625" y="578.89013671875" text-anchor="start" dominant-baseline="alphabetic" transform="matrix(1, 0, 0, 1, 0.5, 0.5)" fill-opacity="1">−100</text><text fill="none" stroke="rgb(0,0,0)" font-family="helvetica" font-size="11px" font-style="normal" font-weight="normal" text-decoration="normal" x="268.91949462890625" y="578.89013671875" text-anchor="start" dominant-baseline="alphabetic" transform="matrix(1, 0, 0, 1, 0.5, 0.5)" stroke-opacity="0" stroke-linejoin="bevel" stroke-miterlimit="10">−100</text><text fill="rgb(68,68,68)" stroke="none" font-family="helvetica" font-size="11px" font-style="normal" font-weight="normal" text-decoration="normal" x="422.8243713378906" y="578.89013671875" text-anchor="start" dominant-baseline="alphabetic" transform="matrix(1, 0, 0, 1, 0.5, 0.5)" fill-opacity="1">−50</text><text fill="none" stroke="rgb(0,0,0)" font-family="helvetica" font-size="11px" font-style="normal" font-weight="normal" text-decoration="normal" x="422.8243713378906" y="578.89013671875" text-anchor="start" dominant-baseline="alphabetic" transform="matrix(1, 0, 0, 1, 0.5, 0.5)" stroke-opacity="0" stroke-linejoin="bevel" stroke-miterlimit="10">−50</text><text fill="rgb(68,68,68)" stroke="none" font-family="helvetica" font-size="11px" font-style="normal" font-weight="normal" text-decoration="normal" x="579.941162109375" y="578.89013671875" text-anchor="start" dominant-baseline="alphabetic" transform="matrix(1, 0, 0, 1, 0.5, 0.5)" fill-opacity="1">0</text><text fill="none" stroke="rgb(0,0,0)" font-family="helvetica" font-size="11px" font-style="normal" font-weight="normal" text-decoration="normal" x="579.941162109375" y="578.89013671875" text-anchor="start" dominant-baseline="alphabetic" transform="matrix(1, 0, 0, 1, 0.5, 0.5)" stroke-opacity="0" stroke-linejoin="bevel" stroke-miterlimit="10">0</text><text fill="rgb(68,68,68)" stroke="none" font-family="helvetica" font-size="11px" font-style="normal" font-weight="normal" text-decoration="normal" x="727.7283935546875" y="578.89013671875" text-anchor="start" dominant-baseline="alphabetic" transform="matrix(1, 0, 0, 1, 0.5, 0.5)" fill-opacity="1">50</text><text fill="none" stroke="rgb(0,0,0)" font-family="helvetica" font-size="11px" font-style="normal" font-weight="normal" text-decoration="normal" x="727.7283935546875" y="578.89013671875" text-anchor="start" dominant-baseline="alphabetic" transform="matrix(1, 0, 0, 1, 0.5, 0.5)" stroke-opacity="0" stroke-linejoin="bevel" stroke-miterlimit="10">50</text><text fill="rgb(68,68,68)" stroke="none" font-family="helvetica" font-size="11px" font-style="normal" font-weight="normal" text-decoration="normal" x="875.5155639648438" y="578.89013671875" text-anchor="start" dominant-baseline="alphabetic" transform="matrix(1, 0, 0, 1, 0.5, 0.5)" fill-opacity="1">100</text><text fill="none" stroke="rgb(0,0,0)" font-family="helvetica" font-size="11px" font-style="normal" font-weight="normal" text-decoration="normal" x="875.5155639648438" y="578.89013671875" text-anchor="start" dominant-baseline="alphabetic" transform="matrix(1, 0, 0, 1, 0.5, 0.5)" stroke-opacity="0" stroke-linejoin="bevel" stroke-miterlimit="10">100</text><text fill="rgb(68,68,68)" stroke="none" font-family="helvetica" font-size="11px" font-style="normal" font-weight="normal" text-decoration="normal" x="1026.361572265625" y="578.89013671875" text-anchor="start" dominant-baseline="alphabetic" transform="matrix(1, 0, 0, 1, 0.5, 0.5)" fill-opacity="1">150</text><text fill="none" stroke="rgb(0,0,0)" font-family="helvetica" font-size="11px" font-style="normal" font-weight="normal" text-decoration="normal" x="1026.361572265625" y="578.89013671875" text-anchor="start" dominant-baseline="alphabetic" transform="matrix(1, 0, 0, 1, 0.5, 0.5)" stroke-opacity="0" stroke-linejoin="bevel" stroke-miterlimit="10">150</text><text fill="rgb(68,68,68)" stroke="none" font-family="helvetica" font-size="13px" font-style="italic" font-weight="normal" text-decoration="normal" x="583" y="596.21484375" text-anchor="start" dominant-baseline="alphabetic" transform="matrix(1, 0, 0, 1, 0.5, 0.5)" fill-opacity="1"></text><text fill="none" stroke="rgb(0,0,0)" font-family="helvetica" font-size="13px" font-style="italic" font-weight="normal" text-decoration="normal" x="583" y="596.21484375" text-anchor="start" dominant-baseline="alphabetic" transform="matrix(1, 0, 0, 1, 0.5, 0.5)" stroke-opacity="0" stroke-linejoin="bevel" stroke-miterlimit="10"></text><path fill="none" stroke="rgb(0,0,0)" paint-order="fill" d="M 33.5 560.5 L 33.5 10.5" stroke-opacity="1" stroke-linejoin="bevel" stroke-miterlimit="10"/><path fill="none" stroke="rgb(0,0,0)" paint-order="fill" d="M 27.5 492.5 L 35.5 492.5 M 27.5 422.5 L 35.5 422.5 M 27.5 360.5 L 35.5 360.5 M 27.5 299.5 L 35.5 299.5 M 27.5 229.5 L 35.5 229.5 M 27.5 133.5 L 35.5 133.5" stroke-opacity="1" stroke-linejoin="bevel" stroke-miterlimit="10"/><path fill="none" stroke="rgb(0,0,0)" paint-order="fill" d="M 29.5 509.5 L 33.5 509.5 M 29.5 526.5 L 33.5 526.5 M 29.5 545.5 L 33.5 545.5 M 29.5 492.5 L 33.5 492.5 M 29.5 477.5 L 33.5 477.5 M 29.5 462.5 L 33.5 462.5 M 29.5 449.5 L 33.5 449.5 M 29.5 435.5 L 33.5 435.5 M 29.5 422.5 L 33.5 422.5 M 29.5 409.5 L 33.5 409.5 M 29.5 397.5 L 33.5 397.5 M 29.5 385.5 L 33.5 385.5 M 29.5 373.5 L 33.5 373.5 M 29.5 360.5 L 33.5 360.5 M 29.5 348.5 L 33.5 348.5 M 29.5 336.5 L 33.5 336.5 M 29.5 324.5 L 33.5 324.5 M 29.5 312.5 L 33.5 312.5 M 29.5 299.5 L 33.5 299.5 M 29.5 286.5 L 33.5 286.5 M 29.5 272.5 L 33.5 272.5 M 29.5 258.5 L 33.5 258.5 M 29.5 244.5 L 33.5 244.5 M 29.5 229.5 L 33.5 229.5 M 29.5 212.5 L 33.5 212.5 M 29.5 195.5 L 33.5 195.5 M 29.5 176.5 L 33.5 176.5 M 29.5 156.5 L 33.5 156.5 M 29.5 133.5 L 33.5 133.5 M 29.5 107.5 L 33.5 107.5 M 29.5 77.5 L 33.5 77.5 M 29.5 42.5 L 33.5 42.5" stroke-opacity="1" stroke-linejoin="bevel" stroke-miterlimit="10"/><text fill="rgb(68,68,68)" stroke="none" font-family="helvetica" font-size="11px" font-style="normal" font-weight="normal" text-decoration="normal" x="3.3408203125" y="496.3018798828125" text-anchor="start" dominant-baseline="alphabetic" transform="matrix(1, 0, 0, 1, 0.5, 0.5)" fill-opacity="1">−40</text><text fill="none" stroke="rgb(0,0,0)" font-family="helvetica" font-size="11px" font-style="normal" font-weight="normal" text-decoration="normal" x="3.3408203125" y="496.3018798828125" text-anchor="start" dominant-baseline="alphabetic" transform="matrix(1, 0, 0, 1, 0.5, 0.5)" stroke-opacity="0" stroke-linejoin="bevel" stroke-miterlimit="10">−40</text><text fill="rgb(68,68,68)" stroke="none" font-family="helvetica" font-size="11px" font-style="normal" font-weight="normal" text-decoration="normal" x="3.3408203125" y="426.03021240234375" text-anchor="start" dominant-baseline="alphabetic" transform="matrix(1, 0, 0, 1, 0.5, 0.5)" fill-opacity="1">−20</text><text fill="none" stroke="rgb(0,0,0)" font-family="helvetica" font-size="11px" font-style="normal" font-weight="normal" text-decoration="normal" x="3.3408203125" y="426.03021240234375" text-anchor="start" dominant-baseline="alphabetic" transform="matrix(1, 0, 0, 1, 0.5, 0.5)" stroke-opacity="0" stroke-linejoin="bevel" stroke-miterlimit="10">−20</text><text fill="rgb(68,68,68)" stroke="none" font-family="helvetica" font-size="11px" font-style="normal" font-weight="normal" text-decoration="normal" x="15.88232421875" y="364.427734375" text-anchor="start" dominant-baseline="alphabetic" transform="matrix(1, 0, 0, 1, 0.5, 0.5)" fill-opacity="1">0</text><text fill="none" stroke="rgb(0,0,0)" font-family="helvetica" font-size="11px" font-style="normal" font-weight="normal" text-decoration="normal" x="15.88232421875" y="364.427734375" text-anchor="start" dominant-baseline="alphabetic" transform="matrix(1, 0, 0, 1, 0.5, 0.5)" stroke-opacity="0" stroke-linejoin="bevel" stroke-miterlimit="10">0</text><text fill="rgb(68,68,68)" stroke="none" font-family="helvetica" font-size="11px" font-style="normal" font-weight="normal" text-decoration="normal" x="9.7646484375" y="302.8252868652344" text-anchor="start" dominant-baseline="alphabetic" transform="matrix(1, 0, 0, 1, 0.5, 0.5)" fill-opacity="1">20</text><text fill="none" stroke="rgb(0,0,0)" font-family="helvetica" font-size="11px" font-style="normal" font-weight="normal" text-decoration="normal" x="9.7646484375" y="302.8252868652344" text-anchor="start" dominant-baseline="alphabetic" transform="matrix(1, 0, 0, 1, 0.5, 0.5)" stroke-opacity="0" stroke-linejoin="bevel" stroke-miterlimit="10">20</text><text fill="rgb(68,68,68)" stroke="none" font-family="helvetica" font-size="11px" font-style="normal" font-weight="normal" text-decoration="normal" x="9.7646484375" y="232.55360412597656" text-anchor="start" dominant-baseline="alphabetic" transform="matrix(1, 0, 0, 1, 0.5, 0.5)" fill-opacity="1">40</text><text fill="none" stroke="rgb(0,0,0)" font-family="helvetica" font-size="11px" font-style="normal" font-weight="normal" text-decoration="normal" x="9.7646484375" y="232.55360412597656" text-anchor="start" dominant-baseline="alphabetic" transform="matrix(1, 0, 0, 1, 0.5, 0.5)" stroke-opacity="0" stroke-linejoin="bevel" stroke-miterlimit="10">40</text><text fill="rgb(68,68,68)" stroke="none" font-family="helvetica" font-size="11px" font-style="normal" font-weight="normal" text-decoration="normal" x="9.7646484375" y="136.78257751464844" text-anchor="start" dominant-baseline="alphabetic" transform="matrix(1, 0, 0, 1, 0.5, 0.5)" fill-opacity="1">60</text><text fill="none" stroke="rgb(0,0,0)" font-family="helvetica" font-size="11px" font-style="normal" font-weight="normal" text-decoration="normal" x="9.7646484375" y="136.78257751464844" text-anchor="start" dominant-baseline="alphabetic" transform="matrix(1, 0, 0, 1, 0.5, 0.5)" stroke-opacity="0" stroke-linejoin="bevel" stroke-miterlimit="10">60</text><text fill="rgb(68,68,68)" stroke="none" font-family="helvetica" font-size="13px" font-style="italic" font-weight="normal" text-decoration="normal" x="-4.6591796875" y="285" text-anchor="start" dominant-baseline="alphabetic" transform="matrix(6.123233995736766e-17, -1, 1, 6.123233995736766e-17, -289.1591796875, 280.8408203125)" fill-opacity="1"></text><text fill="none" stroke="rgb(0,0,0)" font-family="helvetica" font-size="13px" font-style="italic" font-weight="normal" text-decoration="normal" x="-4.6591796875" y="285" text-anchor="start" dominant-baseline="alphabetic" transform="matrix(6.123233995736766e-17, -1, 1, 6.123233995736766e-17, -289.1591796875, 280.8408203125)" stroke-opacity="0" stroke-linejoin="bevel" stroke-miterlimit="10"></text><path fill="rgb(255,255,255)" stroke="rgb(229,229,229)" paint-order="fill" d="M 1133.5 382.5 L 1283.5 382.5 L 1283.5 560.5 L 1133.5 560.5 L 1133.5 382.5 Z" fill-opacity="0.9490196078431372" stroke-opacity="0.5019607843137255" stroke-linejoin="bevel" stroke-miterlimit="10"/><path fill="rgb(31,119,179)" stroke="rgb(31,119,179)" paint-order="fill" d="M 1157.5 402.5 A 4 4 0 0 1 1149.5 402.5 A 4 4 0 0 1 1157.5 402.5" fill-opacity="0.7019607843137254" stroke-opacity="0.7019607843137254" stroke-linejoin="bevel" stroke-miterlimit="10"/><text fill="rgb(68,68,68)" stroke="none" font-family="helvetica" font-size="13px" font-style="normal" font-weight="normal" text-decoration="normal" x="0" y="4.5" text-anchor="start" dominant-baseline="alphabetic" transform="matrix(1, 0, 0, 1, 1168.5, 402.5)" fill-opacity="1">shekhupura</text><text fill="none" stroke="rgb(0,0,0)" font-family="helvetica" font-size="13px" font-style="normal" font-weight="normal" text-decoration="normal" x="0" y="4.5" text-anchor="start" dominant-baseline="alphabetic" transform="matrix(1, 0, 0, 1, 1168.5, 402.5)" stroke-opacity="0" stroke-linejoin="bevel" stroke-miterlimit="10">shekhupura</text><path fill="rgb(255,126,14)" stroke="rgb(255,126,14)" paint-order="fill" d="M 1157.5 425.5 A 4 4 0 0 1 1149.5 425.5 A 4 4 0 0 1 1157.5 425.5" fill-opacity="0.7019607843137254" stroke-opacity="0.7019607843137254" stroke-linejoin="bevel" stroke-miterlimit="10"/><text fill="rgb(68,68,68)" stroke="none" font-family="helvetica" font-size="13px" font-style="normal" font-weight="normal" text-decoration="normal" x="0" y="4.5" text-anchor="start" dominant-baseline="alphabetic" transform="matrix(1, 0, 0, 1, 1168.5, 425.5)" fill-opacity="1">maragogi</text><text fill="none" stroke="rgb(0,0,0)" font-family="helvetica" font-size="13px" font-style="normal" font-weight="normal" text-decoration="normal" x="0" y="4.5" text-anchor="start" dominant-baseline="alphabetic" transform="matrix(1, 0, 0, 1, 1168.5, 425.5)" stroke-opacity="0" stroke-linejoin="bevel" stroke-miterlimit="10">maragogi</text><path fill="rgb(43,160,43)" stroke="rgb(43,160,43)" paint-order="fill" d="M 1157.5 448.5 A 4 4 0 0 1 1149.5 448.5 A 4 4 0 0 1 1157.5 448.5" fill-opacity="0.7019607843137254" stroke-opacity="0.7019607843137254" stroke-linejoin="bevel" stroke-miterlimit="10"/><text fill="rgb(68,68,68)" stroke="none" font-family="helvetica" font-size="13px" font-style="normal" font-weight="normal" text-decoration="normal" x="0" y="4.5" text-anchor="start" dominant-baseline="alphabetic" transform="matrix(1, 0, 0, 1, 1168.5, 448.5)" fill-opacity="1">san angelo</text><text fill="none" stroke="rgb(0,0,0)" font-family="helvetica" font-size="13px" font-style="normal" font-weight="normal" text-decoration="normal" x="0" y="4.5" text-anchor="start" dominant-baseline="alphabetic" transform="matrix(1, 0, 0, 1, 1168.5, 448.5)" stroke-opacity="0" stroke-linejoin="bevel" stroke-miterlimit="10">san angelo</text><path fill="rgb(214,38,40)" stroke="rgb(214,38,40)" paint-order="fill" d="M 1157.5 471.5 A 4 4 0 0 1 1149.5 471.5 A 4 4 0 0 1 1157.5 471.5" fill-opacity="0.7019607843137254" stroke-opacity="0.7019607843137254" stroke-linejoin="bevel" stroke-miterlimit="10"/><text fill="rgb(68,68,68)" stroke="none" font-family="helvetica" font-size="13px" font-style="normal" font-weight="normal" text-decoration="normal" x="0" y="4.5" text-anchor="start" dominant-baseline="alphabetic" transform="matrix(1, 0, 0, 1, 1168.5, 471.5)" fill-opacity="1">holualoa</text><text fill="none" stroke="rgb(0,0,0)" font-family="helvetica" font-size="13px" font-style="normal" font-weight="normal" text-decoration="normal" x="0" y="4.5" text-anchor="start" dominant-baseline="alphabetic" transform="matrix(1, 0, 0, 1, 1168.5, 471.5)" stroke-opacity="0" stroke-linejoin="bevel" stroke-miterlimit="10">holualoa</text><path fill="rgb(147,103,188)" stroke="rgb(147,103,188)" paint-order="fill" d="M 1157.5 494.5 A 4 4 0 0 1 1149.5 494.5 A 4 4 0 0 1 1157.5 494.5" fill-opacity="0.7019607843137254" stroke-opacity="0.7019607843137254" stroke-linejoin="bevel" stroke-miterlimit="10"/><text fill="rgb(68,68,68)" stroke="none" font-family="helvetica" font-size="13px" font-style="normal" font-weight="normal" text-decoration="normal" x="0" y="4.5" text-anchor="start" dominant-baseline="alphabetic" transform="matrix(1, 0, 0, 1, 1168.5, 494.5)" fill-opacity="1">puerto maldonado</text><text fill="none" stroke="rgb(0,0,0)" font-family="helvetica" font-size="13px" font-style="normal" font-weight="normal" text-decoration="normal" x="0" y="4.5" text-anchor="start" dominant-baseline="alphabetic" transform="matrix(1, 0, 0, 1, 1168.5, 494.5)" stroke-opacity="0" stroke-linejoin="bevel" stroke-miterlimit="10">puerto maldonado</text><path fill="rgb(140,86,75)" stroke="rgb(140,86,75)" paint-order="fill" d="M 1157.5 517.5 A 4 4 0 0 1 1149.5 517.5 A 4 4 0 0 1 1157.5 517.5" fill-opacity="0.7019607843137254" stroke-opacity="0.7019607843137254" stroke-linejoin="bevel" stroke-miterlimit="10"/><text fill="rgb(68,68,68)" stroke="none" font-family="helvetica" font-size="13px" font-style="normal" font-weight="normal" text-decoration="normal" x="0" y="4.5" text-anchor="start" dominant-baseline="alphabetic" transform="matrix(1, 0, 0, 1, 1168.5, 517.5)" fill-opacity="1">zaragoza</text><text fill="none" stroke="rgb(0,0,0)" font-family="helvetica" font-size="13px" font-style="normal" font-weight="normal" text-decoration="normal" x="0" y="4.5" text-anchor="start" dominant-baseline="alphabetic" transform="matrix(1, 0, 0, 1, 1168.5, 517.5)" stroke-opacity="0" stroke-linejoin="bevel" stroke-miterlimit="10">zaragoza</text><path fill="rgb(226,119,193)" stroke="rgb(226,119,193)" paint-order="fill" d="M 1157.5 540.5 A 4 4 0 0 1 1149.5 540.5 A 4 4 0 0 1 1157.5 540.5" fill-opacity="0.7019607843137254" stroke-opacity="0.7019607843137254" stroke-linejoin="bevel" stroke-miterlimit="10"/><text fill="rgb(68,68,68)" stroke="none" font-family="helvetica" font-size="13px" font-style="normal" font-weight="normal" text-decoration="normal" x="0" y="4.5" text-anchor="start" dominant-baseline="alphabetic" transform="matrix(1, 0, 0, 1, 1168.5, 540.5)" fill-opacity="1">kailua-kona</text><text fill="none" stroke="rgb(0,0,0)" font-family="helvetica" font-size="13px" font-style="normal" font-weight="normal" text-decoration="normal" x="0" y="4.5" text-anchor="start" dominant-baseline="alphabetic" transform="matrix(1, 0, 0, 1, 1168.5, 540.5)" stroke-opacity="0" stroke-linejoin="bevel" stroke-miterlimit="10">kailua-kona</text></svg>